<svg xmlns="http://www.w3.org/2000/svg" viewBox="0 0 301.32 89.82"><defs><style>.cls-1{fill:#27b4b8;}.cls-2{fill:#fff;}</style></defs><title>Pathway_White</title><g id="Layer_2" data-name="Layer 2"><g id="Layer_1-2" data-name="Layer 1"><path class="cls-1" d="M36.94,29.59c0,11.59-8.21,17-19.73,17h-5.4V63.22H0V13.32H16.13C29,13.32,36.94,18.64,36.94,29.59Zm-12.17,0c0-5.33-2.95-7.85-8.78-7.85H11.81V38.09H16.2C21.53,38.09,24.77,35.85,24.77,29.59Z"/><path class="cls-1" d="M47.31,52.49,44.79,63.22H32.54l15.05-49.9H61.92l15,49.9H64.44L61.85,52.49Zm7.27-30.61-5.26,22H59.83Z"/><path class="cls-1" d="M97.71,22.39V63.22H85.9V22.39H73V13.32h38.16L110,22.39Z"/><path class="cls-1" d="M127.73,41.83V63.22H115.92V13.32h11.81V32.61h15V13.32h11.81v49.9H142.71V41.83Z"/><path class="cls-2" d="M195.77,63.22l-6.19-38.1L183,63.22h-15l-8.21-49.9h11.81l5,41,6.91-41h12.38l6.48,41,5.84-41h11.23l-8.35,49.9Z"/><path class="cls-2" d="M232.56,52.49,230,63.22H217.8l15-49.9h14.33l15.05,49.9H249.7l-2.6-10.73Zm7.27-30.61-5.25,22h10.51Z"/><path class="cls-2" d="M279.31,89.82l-7.65-26.6V44.57l-16-36.91,12.89,5.66,9.22,22,9.21-22L301.32,0,283.47,44.49Z"/></g></g></svg>